<svg id="Layer_1" data-name="Layer 1" xmlns="http://www.w3.org/2000/svg" viewBox="0 0 353.7 353.7"><defs><style>.cls-1,.cls-3{fill:#fcfbfe;}.cls-2{fill:#ba1e68;}.cls-2,.cls-3,.cls-4,.cls-5{stroke:#000;stroke-miterlimit:10;stroke-width:2px;}.cls-4{fill:#5643fd;}.cls-5{fill:#0c164f;}</style></defs><path class="cls-1" d="M162.69,154.47a38.15,38.15,0,1,0,38.15,38.15A38.19,38.19,0,0,0,162.69,154.47Z"/><path class="cls-1" d="M65,94.05a74.71,74.71,0,0,0-22,53.19,6.81,6.81,0,1,0,13.61,0,61.61,61.61,0,0,1,61.62-61.62,6.81,6.81,0,0,0,0-13.61A74.74,74.74,0,0,0,65,94.05Z"/><path class="cls-1" d="M338.64,176.92a4.42,4.42,0,0,1-4.41-4.41A151.22,151.22,0,0,0,183,21.28a4.42,4.42,0,1,1,0-8.83,160,160,0,0,1,160,160.05,4.42,4.42,0,0,1-4.42,4.42Z"/><path class="cls-1" d="M38,67.06A108.35,108.35,0,0,0,6,144.18a9.87,9.87,0,0,0,19.73,0A89.33,89.33,0,0,1,115.1,54.84a9.86,9.86,0,1,0,0-19.72A108.35,108.35,0,0,0,38,67.06Z"/><path class="cls-1" d="M261.27,290.34a74.74,74.74,0,0,0,22-53.2,6.8,6.8,0,1,0-13.6,0,61.63,61.63,0,0,1-61.62,61.62,6.81,6.81,0,0,0,0,13.61A74.75,74.75,0,0,0,261.27,290.34Z"/><path class="cls-1" d="M288.25,317.32a108.35,108.35,0,0,0,31.94-77.12,9.87,9.87,0,0,0-19.73,0,89.33,89.33,0,0,1-89.33,89.34,9.87,9.87,0,0,0,0,19.73A108.32,108.32,0,0,0,288.25,317.32Z"/><path class="cls-1" d="M111.73,244a47.7,47.7,0,0,0,34,14.06,4.34,4.34,0,1,0,0-8.68,39.33,39.33,0,0,1-39.33-39.33,4.34,4.34,0,1,0-8.68,0A47.68,47.68,0,0,0,111.73,244Z"/><path class="cls-1" d="M94.51,261.24a69.15,69.15,0,0,0,49.22,20.38,6.3,6.3,0,1,0,0-12.59,57,57,0,0,1-57-57,6.3,6.3,0,0,0-12.59,0A69.16,69.16,0,0,0,94.51,261.24Z"/><path class="cls-1" d="M238.59,116.71a74.71,74.71,0,0,0-53.19-22,6.81,6.81,0,1,0,0,13.61A61.63,61.63,0,0,1,247,169.91a6.81,6.81,0,0,0,13.61,0A74.74,74.74,0,0,0,238.59,116.71Z"/><path class="cls-1" d="M265.58,89.72a108.35,108.35,0,0,0-77.12-31.94,9.87,9.87,0,1,0,0,19.73,89.33,89.33,0,0,1,89.34,89.34,9.86,9.86,0,1,0,19.72,0A108.35,108.35,0,0,0,265.58,89.72Z"/><path class="cls-1" d="M216.89,138.63a47.7,47.7,0,0,0-33.95-14.06,4.34,4.34,0,1,0,0,8.68,39.33,39.33,0,0,1,39.33,39.33,4.34,4.34,0,1,0,8.68,0A47.67,47.67,0,0,0,216.89,138.63Z"/><path class="cls-2" d="M162.69,154.47a38.15,38.15,0,1,0,38.15,38.15A38.19,38.19,0,0,0,162.69,154.47Z"/><path class="cls-3" d="M65,94.05a74.71,74.71,0,0,0-22,53.19,6.81,6.81,0,1,0,13.61,0,61.61,61.61,0,0,1,61.62-61.62,6.81,6.81,0,0,0,0-13.61A74.74,74.74,0,0,0,65,94.05Z"/><path class="cls-4" d="M338.64,176.92a4.42,4.42,0,0,1-4.41-4.41A151.22,151.22,0,0,0,183,21.28a4.42,4.42,0,1,1,0-8.83,160,160,0,0,1,160,160.05,4.42,4.42,0,0,1-4.42,4.42Z"/><path class="cls-5" d="M38,67.06A108.35,108.35,0,0,0,6,144.18a9.87,9.87,0,0,0,19.73,0A89.33,89.33,0,0,1,115.1,54.84a9.86,9.86,0,1,0,0-19.72A108.35,108.35,0,0,0,38,67.06Z"/><path class="cls-3" d="M261.27,290.34a74.74,74.74,0,0,0,22-53.2,6.8,6.8,0,1,0-13.6,0,61.63,61.63,0,0,1-61.62,61.62,6.81,6.81,0,0,0,0,13.61A74.75,74.75,0,0,0,261.27,290.34Z"/><path class="cls-5" d="M288.25,317.32a108.35,108.35,0,0,0,31.94-77.12,9.87,9.87,0,0,0-19.73,0,89.33,89.33,0,0,1-89.33,89.34,9.87,9.87,0,0,0,0,19.73A108.32,108.32,0,0,0,288.25,317.32Z"/><path class="cls-3" d="M111.73,244a47.7,47.7,0,0,0,34,14.06,4.34,4.34,0,1,0,0-8.68,39.33,39.33,0,0,1-39.33-39.33,4.34,4.34,0,1,0-8.68,0A47.68,47.68,0,0,0,111.73,244Z"/><path class="cls-5" d="M94.51,261.24a69.15,69.15,0,0,0,49.22,20.38,6.3,6.3,0,1,0,0-12.59,57,57,0,0,1-57-57,6.3,6.3,0,0,0-12.59,0A69.16,69.16,0,0,0,94.51,261.24Z"/><path class="cls-3" d="M238.59,116.71a74.71,74.71,0,0,0-53.19-22,6.81,6.81,0,1,0,0,13.61A61.63,61.63,0,0,1,247,169.91a6.81,6.81,0,0,0,13.61,0A74.74,74.74,0,0,0,238.59,116.71Z"/><path class="cls-4" d="M265.58,89.72a108.35,108.35,0,0,0-77.12-31.94,9.87,9.87,0,1,0,0,19.73,89.33,89.33,0,0,1,89.34,89.34,9.86,9.86,0,1,0,19.72,0A108.35,108.35,0,0,0,265.58,89.72Z"/><path class="cls-3" d="M216.89,138.63a47.7,47.7,0,0,0-33.95-14.06,4.34,4.34,0,1,0,0,8.68,39.33,39.33,0,0,1,39.33,39.33,4.34,4.34,0,1,0,8.68,0A47.67,47.67,0,0,0,216.89,138.63Z"/></svg>