<svg xmlns="http://www.w3.org/2000/svg" viewBox="0 0 1212.6 353.7"><defs><style>.cls-1,.cls-8{font-size:278.49px;font-family:FORMALART, FORMAL ART;}.cls-1,.cls-2,.cls-3{fill:#7649fe;}.cls-10,.cls-11,.cls-3{font-size:48.15px;font-family:Neuropol-Regular, Neuropol;}.cls-4{letter-spacing:-0.02em;}.cls-5{letter-spacing:-0.02em;}.cls-6{letter-spacing:0.02em;}.cls-7{letter-spacing:-0.02em;}.cls-13,.cls-8{fill:#ba1e68;}.cls-11,.cls-9{fill:none;}.cls-11,.cls-13,.cls-14,.cls-15,.cls-16,.cls-9{stroke:#000;stroke-miterlimit:10;}.cls-9{stroke-width:3px;}.cls-10{fill:#1d1135;}.cls-11,.cls-13,.cls-14,.cls-15,.cls-16{stroke-width:2px;}.cls-12,.cls-14{fill:#fcfbfe;}.cls-15{fill:#5643fd;}.cls-16{fill:#0c164f;}</style></defs><g id="Layer_3" data-name="Layer 3"><text class="cls-1" transform="translate(405.02 248.1)">DSWN</text><text class="cls-1" transform="translate(405.02 248.1)">DSWN</text><path class="cls-2" d="M415.22,58.41l24.07,8,109.6,36.45a93.53,93.53,0,0,1,31.68,16.59,52.88,52.88,0,0,1,12.71,16.11A45.8,45.8,0,0,1,598,156.72,46.07,46.07,0,0,1,593.28,178a50.5,50.5,0,0,1-12.85,16,92,92,0,0,1-31.54,16.59l-109.6,36.58-24.07,8Zm36.71,50.72v95.32l85.53-28.55a56.78,56.78,0,0,0,19-9.52,11.63,11.63,0,0,0,4.76-9.66,11.38,11.38,0,0,0-4.62-9.52q-7.49-6-19.18-9.65Z"/><path class="cls-2" d="M746.33,101.92H673.17q-7.06,0-11.42,3.81t-5.37,7.89a29.38,29.38,0,0,0-1,6.93A22,22,0,0,0,656,126a17.74,17.74,0,0,0,5.71,9.25q4.35,3.81,11.42,3.81h73.16q15.36,0,26.45,6a50,50,0,0,1,17.74,15.64q6.66,9.65,8.3,18.35a82.4,82.4,0,0,1,1.63,14.55,63.49,63.49,0,0,1-1.09,11.56,54.83,54.83,0,0,1-8.84,21.35,50,50,0,0,1-17.74,15.64q-11.09,6-26.45,6H673.17A53,53,0,0,1,652,243.82a55.85,55.85,0,0,1-29.31-29.31,53.34,53.34,0,0,1-4.28-21.34h36.71a18.13,18.13,0,0,0,18.09,18.22h73.16q7.06,0,11.42-3.61a15.43,15.43,0,0,0,5.44-7.61,26.51,26.51,0,0,0,1.09-6.6,17.62,17.62,0,0,0-.82-5.3,16.8,16.8,0,0,0-5.71-8.91q-4.35-3.6-11.42-3.6H673.17q-15.37,0-26.45-6a49.38,49.38,0,0,1-17.67-15.84q-6.6-9.8-8.3-18.63a80.8,80.8,0,0,1-1.7-14.69,64.13,64.13,0,0,1,1.09-11.83,58.21,58.21,0,0,1,8.91-21.48A49.29,49.29,0,0,1,646.72,71.4q11.09-6.06,26.45-6.05h73.16a52.9,52.9,0,0,1,21.21,4.28,57.08,57.08,0,0,1,17.54,11.76,55.1,55.1,0,0,1,11.76,17.47,53.41,53.41,0,0,1,4.29,21.28H764.41a18.34,18.34,0,0,0-18.08-18.22Z"/><path class="cls-2" d="M821.52,65.35h36.72V193.17a17.87,17.87,0,0,0,5.3,12.91,17.42,17.42,0,0,0,12.78,5.31,18.13,18.13,0,0,0,18.23-18.22h36.71a18.11,18.11,0,0,0,18.22,18.22,17.39,17.39,0,0,0,12.78-5.31,17.84,17.84,0,0,0,5.31-12.91V65.35h36.71V193.17a53.34,53.34,0,0,1-4.28,21.34,55.75,55.75,0,0,1-29.31,29.31,54.8,54.8,0,0,1-41.13.54A56.62,56.62,0,0,1,912.9,234.1a56.49,56.49,0,0,1-16.66,10.26,54.8,54.8,0,0,1-41.13-.54,55.94,55.94,0,0,1-17.54-11.9,55.17,55.17,0,0,1-11.76-17.41,53.18,53.18,0,0,1-4.29-21.34Z"/><path class="cls-2" d="M1170.72,65.35h36.71V193.17a53.17,53.17,0,0,1-4.28,21.34,55.34,55.34,0,0,1-11.76,17.41,56.05,56.05,0,0,1-17.54,11.9,55,55,0,0,1-42.56,0A57.07,57.07,0,0,1,1102,214.51a53.34,53.34,0,0,1-4.28-21.34v-73a17.45,17.45,0,0,0-5.3-12.78,17.69,17.69,0,0,0-12.92-5.44,18.35,18.35,0,0,0-18.09,18.22v128h-36.71v-128A53.58,53.58,0,0,1,1029,98.86a55.43,55.43,0,0,1,11.76-17.47,57.2,57.2,0,0,1,17.54-11.76,55.07,55.07,0,0,1,42.57,0,57.2,57.2,0,0,1,17.54,11.76,55.43,55.43,0,0,1,11.76,17.47,53.41,53.41,0,0,1,4.28,21.28v73a18.13,18.13,0,0,0,18.22,18.22,17.43,17.43,0,0,0,12.79-5.31,17.87,17.87,0,0,0,5.3-12.91Z"/><text class="cls-3" transform="translate(415.22 315.14) scale(0.74 1)">Deep Space Wi<tspan class="cls-4" x="498.86" y="0">r</tspan><tspan x="519.13" y="0">eless N</tspan><tspan class="cls-5" x="753.85" y="0">e</tspan><tspan class="cls-6" x="794.68" y="0">t</tspan><tspan class="cls-7" x="819.28" y="0">w</tspan><tspan x="875.23" y="0">orking</tspan></text><text class="cls-3" transform="translate(415.22 315.14) scale(0.74 1)">Deep Space Wi<tspan class="cls-4" x="498.86" y="0">r</tspan><tspan x="519.13" y="0">eless N</tspan><tspan class="cls-5" x="753.85" y="0">e</tspan><tspan class="cls-6" x="794.68" y="0">t</tspan><tspan class="cls-7" x="819.28" y="0">w</tspan><tspan x="875.23" y="0">orking</tspan></text><text class="cls-3" transform="translate(415.22 315.14) scale(0.74 1)">Deep Space Wi<tspan class="cls-4" x="498.86" y="0">r</tspan><tspan x="519.13" y="0">eless N</tspan><tspan class="cls-5" x="753.85" y="0">e</tspan><tspan class="cls-6" x="794.68" y="0">t</tspan><tspan class="cls-7" x="819.28" y="0">w</tspan><tspan x="875.23" y="0">orking</tspan></text><text class="cls-8" transform="translate(405.02 248.1)">DSWN</text><path class="cls-9" d="M415.22,58.41l24.07,8,109.6,36.45a93.53,93.53,0,0,1,31.68,16.59,52.88,52.88,0,0,1,12.71,16.11A45.8,45.8,0,0,1,598,156.72,46.07,46.07,0,0,1,593.28,178a50.5,50.5,0,0,1-12.85,16,92,92,0,0,1-31.54,16.59l-109.6,36.58-24.07,8Zm36.71,50.72v95.32l85.53-28.55a56.78,56.78,0,0,0,19-9.52,11.63,11.63,0,0,0,4.76-9.66,11.38,11.38,0,0,0-4.62-9.52q-7.49-6-19.18-9.65Z"/><path class="cls-9" d="M746.33,101.92H673.17q-7.06,0-11.42,3.81t-5.37,7.89a29.38,29.38,0,0,0-1,6.93A22,22,0,0,0,656,126a17.74,17.74,0,0,0,5.71,9.25q4.35,3.81,11.42,3.81h73.16q15.36,0,26.45,6a50,50,0,0,1,17.74,15.64q6.66,9.65,8.3,18.35a82.4,82.4,0,0,1,1.63,14.55,63.49,63.49,0,0,1-1.09,11.56,54.83,54.83,0,0,1-8.84,21.35,50,50,0,0,1-17.74,15.64q-11.09,6-26.45,6H673.17A53,53,0,0,1,652,243.82a55.85,55.85,0,0,1-29.31-29.31,53.34,53.34,0,0,1-4.28-21.34h36.71a18.13,18.13,0,0,0,18.09,18.22h73.16q7.06,0,11.42-3.61a15.43,15.43,0,0,0,5.44-7.61,26.51,26.51,0,0,0,1.09-6.6,17.62,17.62,0,0,0-.82-5.3,16.8,16.8,0,0,0-5.71-8.91q-4.35-3.6-11.42-3.6H673.17q-15.37,0-26.45-6a49.38,49.38,0,0,1-17.67-15.84q-6.6-9.8-8.3-18.63a80.8,80.8,0,0,1-1.7-14.69,64.13,64.13,0,0,1,1.09-11.83,58.21,58.21,0,0,1,8.91-21.48A49.29,49.29,0,0,1,646.72,71.4q11.09-6.06,26.45-6.05h73.16a52.9,52.9,0,0,1,21.21,4.28,57.08,57.08,0,0,1,17.54,11.76,55.1,55.1,0,0,1,11.76,17.47,53.41,53.41,0,0,1,4.29,21.28H764.41a18.34,18.34,0,0,0-18.08-18.22Z"/><path class="cls-9" d="M821.52,65.35h36.72V193.17a17.87,17.87,0,0,0,5.3,12.91,17.42,17.42,0,0,0,12.78,5.31,18.13,18.13,0,0,0,18.23-18.22h36.71a18.11,18.11,0,0,0,18.22,18.22,17.39,17.39,0,0,0,12.78-5.31,17.84,17.84,0,0,0,5.31-12.91V65.35h36.71V193.17a53.34,53.34,0,0,1-4.28,21.34,55.75,55.75,0,0,1-29.31,29.31,54.8,54.8,0,0,1-41.13.54A56.62,56.62,0,0,1,912.9,234.1a56.49,56.49,0,0,1-16.66,10.26,54.8,54.8,0,0,1-41.13-.54,55.94,55.94,0,0,1-17.54-11.9,55.17,55.17,0,0,1-11.76-17.41,53.18,53.18,0,0,1-4.29-21.34Z"/><path class="cls-9" d="M1170.72,65.35h36.71V193.17a53.17,53.17,0,0,1-4.28,21.34,55.34,55.34,0,0,1-11.76,17.41,56.05,56.05,0,0,1-17.54,11.9,55,55,0,0,1-42.56,0A57.07,57.07,0,0,1,1102,214.51a53.34,53.34,0,0,1-4.28-21.34v-73a17.45,17.45,0,0,0-5.3-12.78,17.69,17.69,0,0,0-12.92-5.44,18.35,18.35,0,0,0-18.09,18.22v128h-36.71v-128A53.58,53.58,0,0,1,1029,98.86a55.43,55.43,0,0,1,11.76-17.47,57.2,57.2,0,0,1,17.54-11.76,55.07,55.07,0,0,1,42.57,0,57.2,57.2,0,0,1,17.54,11.76,55.43,55.43,0,0,1,11.76,17.47,53.41,53.41,0,0,1,4.28,21.28v73a18.13,18.13,0,0,0,18.22,18.22,17.43,17.43,0,0,0,12.79-5.31,17.87,17.87,0,0,0,5.3-12.91Z"/><text class="cls-10" transform="translate(415.22 315.14) scale(0.74 1)">Deep Space Wi<tspan class="cls-4" x="498.86" y="0">r</tspan><tspan x="519.13" y="0">eless N</tspan><tspan class="cls-5" x="753.85" y="0">e</tspan><tspan class="cls-6" x="794.68" y="0">t</tspan><tspan class="cls-7" x="819.28" y="0">w</tspan><tspan x="875.23" y="0">orking</tspan></text><text class="cls-11" transform="translate(415.22 315.14) scale(0.74 1)">Deep Space Wi<tspan class="cls-4" x="498.86" y="0">r</tspan><tspan x="519.13" y="0">eless N</tspan><tspan class="cls-5" x="753.85" y="0">e</tspan><tspan class="cls-6" x="794.68" y="0">t</tspan><tspan class="cls-7" x="819.28" y="0">w</tspan><tspan x="875.23" y="0">orking</tspan></text></g><g id="Layer_1" data-name="Layer 1"><path class="cls-12" d="M162.69,154.47a38.15,38.15,0,1,0,38.15,38.15A38.19,38.19,0,0,0,162.69,154.47Z"/><path class="cls-12" d="M65,94.05a74.71,74.71,0,0,0-22,53.19,6.81,6.81,0,1,0,13.61,0,61.61,61.61,0,0,1,61.62-61.62,6.81,6.81,0,0,0,0-13.61A74.74,74.74,0,0,0,65,94.05Z"/><path class="cls-12" d="M338.64,176.92a4.42,4.42,0,0,1-4.41-4.41A151.22,151.22,0,0,0,183,21.28a4.42,4.42,0,1,1,0-8.83,160,160,0,0,1,160,160.05,4.42,4.42,0,0,1-4.42,4.42Z"/><path class="cls-12" d="M38,67.06A108.35,108.35,0,0,0,6,144.18a9.87,9.87,0,0,0,19.73,0A89.33,89.33,0,0,1,115.1,54.84a9.86,9.86,0,1,0,0-19.72A108.35,108.35,0,0,0,38,67.06Z"/><path class="cls-12" d="M261.27,290.34a74.74,74.74,0,0,0,22-53.2,6.8,6.8,0,1,0-13.6,0,61.63,61.63,0,0,1-61.62,61.62,6.81,6.81,0,0,0,0,13.61A74.75,74.75,0,0,0,261.27,290.34Z"/><path class="cls-12" d="M288.25,317.32a108.35,108.35,0,0,0,31.94-77.12,9.87,9.87,0,0,0-19.73,0,89.33,89.33,0,0,1-89.33,89.34,9.87,9.87,0,0,0,0,19.73A108.32,108.32,0,0,0,288.25,317.32Z"/><path class="cls-12" d="M111.73,244a47.7,47.7,0,0,0,34,14.06,4.34,4.34,0,1,0,0-8.68,39.33,39.33,0,0,1-39.33-39.33,4.34,4.34,0,1,0-8.68,0A47.68,47.68,0,0,0,111.73,244Z"/><path class="cls-12" d="M94.51,261.24a69.15,69.15,0,0,0,49.22,20.38,6.3,6.3,0,1,0,0-12.59,57,57,0,0,1-57-57,6.3,6.3,0,0,0-12.59,0A69.16,69.16,0,0,0,94.51,261.24Z"/><path class="cls-12" d="M238.59,116.71a74.71,74.71,0,0,0-53.19-22,6.81,6.81,0,1,0,0,13.61A61.63,61.63,0,0,1,247,169.91a6.81,6.81,0,0,0,13.61,0A74.74,74.74,0,0,0,238.59,116.71Z"/><path class="cls-12" d="M265.58,89.72a108.35,108.35,0,0,0-77.12-31.94,9.87,9.87,0,1,0,0,19.73,89.33,89.33,0,0,1,89.34,89.34,9.86,9.86,0,1,0,19.72,0A108.35,108.35,0,0,0,265.58,89.72Z"/><path class="cls-12" d="M216.89,138.63a47.7,47.7,0,0,0-33.95-14.06,4.34,4.34,0,1,0,0,8.68,39.33,39.33,0,0,1,39.33,39.33,4.34,4.34,0,1,0,8.68,0A47.67,47.67,0,0,0,216.89,138.63Z"/><path class="cls-13" d="M162.69,154.47a38.15,38.15,0,1,0,38.15,38.15A38.19,38.19,0,0,0,162.69,154.47Z"/><path class="cls-14" d="M65,94.05a74.71,74.71,0,0,0-22,53.19,6.81,6.81,0,1,0,13.61,0,61.61,61.61,0,0,1,61.62-61.62,6.81,6.81,0,0,0,0-13.61A74.74,74.74,0,0,0,65,94.05Z"/><path class="cls-15" d="M338.64,176.92a4.42,4.42,0,0,1-4.41-4.41A151.22,151.22,0,0,0,183,21.28a4.42,4.42,0,1,1,0-8.83,160,160,0,0,1,160,160.05,4.42,4.42,0,0,1-4.42,4.42Z"/><path class="cls-16" d="M38,67.06A108.35,108.35,0,0,0,6,144.18a9.87,9.87,0,0,0,19.73,0A89.33,89.33,0,0,1,115.1,54.84a9.86,9.86,0,1,0,0-19.72A108.35,108.35,0,0,0,38,67.06Z"/><path class="cls-14" d="M261.27,290.34a74.74,74.74,0,0,0,22-53.2,6.8,6.8,0,1,0-13.6,0,61.63,61.63,0,0,1-61.62,61.62,6.81,6.81,0,0,0,0,13.61A74.75,74.75,0,0,0,261.27,290.34Z"/><path class="cls-16" d="M288.25,317.32a108.35,108.35,0,0,0,31.94-77.12,9.87,9.87,0,0,0-19.73,0,89.33,89.33,0,0,1-89.33,89.34,9.87,9.87,0,0,0,0,19.73A108.32,108.32,0,0,0,288.25,317.32Z"/><path class="cls-14" d="M111.73,244a47.7,47.7,0,0,0,34,14.06,4.34,4.34,0,1,0,0-8.68,39.33,39.33,0,0,1-39.33-39.33,4.34,4.34,0,1,0-8.68,0A47.68,47.68,0,0,0,111.73,244Z"/><path class="cls-16" d="M94.51,261.24a69.15,69.15,0,0,0,49.22,20.38,6.3,6.3,0,1,0,0-12.59,57,57,0,0,1-57-57,6.3,6.3,0,0,0-12.59,0A69.16,69.16,0,0,0,94.51,261.24Z"/><path class="cls-14" d="M238.59,116.71a74.71,74.71,0,0,0-53.19-22,6.81,6.81,0,1,0,0,13.61A61.63,61.63,0,0,1,247,169.91a6.81,6.81,0,0,0,13.61,0A74.74,74.74,0,0,0,238.59,116.71Z"/><path class="cls-15" d="M265.58,89.72a108.35,108.35,0,0,0-77.12-31.94,9.87,9.87,0,1,0,0,19.73,89.33,89.33,0,0,1,89.34,89.34,9.86,9.86,0,1,0,19.72,0A108.35,108.35,0,0,0,265.58,89.72Z"/><path class="cls-14" d="M216.89,138.63a47.7,47.7,0,0,0-33.95-14.06,4.34,4.34,0,1,0,0,8.68,39.33,39.33,0,0,1,39.33,39.33,4.34,4.34,0,1,0,8.68,0A47.67,47.67,0,0,0,216.89,138.63Z"/></g></svg>