<svg id="Layer_3" data-name="Layer 3" xmlns="http://www.w3.org/2000/svg" viewBox="0 0 801.7 353.7"><defs><style>.cls-1,.cls-7{font-size:278.49px;font-family:FORMALART, FORMAL ART;}.cls-1,.cls-2,.cls-3{fill:#7649fe;}.cls-10,.cls-3,.cls-9{font-size:48.15px;font-family:Neuropol-Regular, Neuropol;}.cls-4{letter-spacing:-0.02em;}.cls-5{letter-spacing:0.02em;}.cls-6{letter-spacing:-0.02em;}.cls-7{fill:#ba1e68;}.cls-10,.cls-8{fill:none;stroke:#000;stroke-miterlimit:10;}.cls-8{stroke-width:3px;}.cls-9{fill:#1d1135;}.cls-10{stroke-width:2px;}</style></defs><text class="cls-1" transform="translate(-5.88 248.1)">DSWN</text><text class="cls-1" transform="translate(-5.88 248.1)">DSWN</text><path class="cls-2" d="M4.32,58.41l24.07,8L138,102.88a93.53,93.53,0,0,1,31.68,16.59,52.88,52.88,0,0,1,12.71,16.11,45.8,45.8,0,0,1,4.69,21.14A46.07,46.07,0,0,1,182.38,178a50.5,50.5,0,0,1-12.85,16A92,92,0,0,1,138,210.57L28.39,247.15l-24.07,8ZM41,109.13v95.32l85.53-28.55a56.78,56.78,0,0,0,19-9.52,11.63,11.63,0,0,0,4.76-9.66,11.38,11.38,0,0,0-4.62-9.52q-7.49-6-19.18-9.65Z"/><path class="cls-2" d="M335.43,101.92H262.27q-7.06,0-11.42,3.81t-5.37,7.89a29.38,29.38,0,0,0-1,6.93,22,22,0,0,0,.68,5.44,17.74,17.74,0,0,0,5.71,9.25q4.35,3.81,11.42,3.81h73.16q15.36,0,26.45,6a50,50,0,0,1,17.74,15.64q6.66,9.65,8.3,18.35a82.4,82.4,0,0,1,1.63,14.55,63.49,63.49,0,0,1-1.09,11.56,54.83,54.83,0,0,1-8.84,21.35,50,50,0,0,1-17.74,15.64q-11.08,6-26.45,6H262.27a53,53,0,0,1-21.21-4.28,55.85,55.85,0,0,1-29.31-29.31,53.34,53.34,0,0,1-4.28-21.34h36.71a18.13,18.13,0,0,0,18.09,18.22h73.16q7.06,0,11.42-3.61a15.43,15.43,0,0,0,5.44-7.61,26.51,26.51,0,0,0,1.09-6.6,17.62,17.62,0,0,0-.82-5.3,16.8,16.8,0,0,0-5.71-8.91q-4.35-3.6-11.42-3.6H262.27q-15.37,0-26.45-6a49.38,49.38,0,0,1-17.67-15.84q-6.6-9.8-8.3-18.63a80.8,80.8,0,0,1-1.7-14.69,64.13,64.13,0,0,1,1.09-11.83,58.21,58.21,0,0,1,8.91-21.48A49.29,49.29,0,0,1,235.82,71.4q11.09-6.06,26.45-6.05h73.16a52.9,52.9,0,0,1,21.21,4.28,57.08,57.08,0,0,1,17.54,11.76,55.1,55.1,0,0,1,11.76,17.47,53.41,53.41,0,0,1,4.29,21.28H353.51a18.34,18.34,0,0,0-18.08-18.22Z"/><path class="cls-2" d="M410.62,65.35h36.72V193.17a17.87,17.87,0,0,0,5.3,12.91,17.42,17.42,0,0,0,12.78,5.31,18.13,18.13,0,0,0,18.23-18.22h36.71a18.11,18.11,0,0,0,18.22,18.22,17.39,17.39,0,0,0,12.78-5.31,17.84,17.84,0,0,0,5.31-12.91V65.35h36.71V193.17a53.34,53.34,0,0,1-4.28,21.34,55.75,55.75,0,0,1-29.31,29.31,54.8,54.8,0,0,1-41.13.54A56.62,56.62,0,0,1,502,234.1a56.49,56.49,0,0,1-16.66,10.26,54.8,54.8,0,0,1-41.13-.54,55.94,55.94,0,0,1-17.54-11.9,55.17,55.17,0,0,1-11.76-17.41,53.18,53.18,0,0,1-4.29-21.34Z"/><path class="cls-2" d="M759.82,65.35h36.71V193.17a53.17,53.17,0,0,1-4.28,21.34,55.34,55.34,0,0,1-11.76,17.41A56.05,56.05,0,0,1,763,243.82a55,55,0,0,1-42.56,0,57.07,57.07,0,0,1-29.31-29.31,53.34,53.34,0,0,1-4.28-21.34v-73a17.45,17.45,0,0,0-5.3-12.78,17.69,17.69,0,0,0-12.92-5.44,18.35,18.35,0,0,0-18.09,18.22v128H613.78v-128a53.58,53.58,0,0,1,4.28-21.28,55.43,55.43,0,0,1,11.76-17.47,57.2,57.2,0,0,1,17.54-11.76,55.07,55.07,0,0,1,42.57,0,57.2,57.2,0,0,1,17.54,11.76,55.43,55.43,0,0,1,11.76,17.47,53.41,53.41,0,0,1,4.28,21.28v73a18.13,18.13,0,0,0,18.22,18.22,17.43,17.43,0,0,0,12.79-5.31,17.87,17.87,0,0,0,5.3-12.91Z"/><text class="cls-3" transform="translate(4.32 315.14) scale(0.74 1)">Deep Space Wi<tspan class="cls-4" x="498.86" y="0">r</tspan><tspan x="519.13" y="0">eless N</tspan><tspan class="cls-4" x="753.85" y="0">e</tspan><tspan class="cls-5" x="794.68" y="0">t</tspan><tspan class="cls-6" x="819.28" y="0">w</tspan><tspan x="875.23" y="0">orking</tspan></text><text class="cls-3" transform="translate(4.32 315.14) scale(0.74 1)">Deep Space Wi<tspan class="cls-4" x="498.86" y="0">r</tspan><tspan x="519.13" y="0">eless N</tspan><tspan class="cls-4" x="753.85" y="0">e</tspan><tspan class="cls-5" x="794.68" y="0">t</tspan><tspan class="cls-6" x="819.28" y="0">w</tspan><tspan x="875.23" y="0">orking</tspan></text><text class="cls-3" transform="translate(4.32 315.14) scale(0.74 1)">Deep Space Wi<tspan class="cls-4" x="498.86" y="0">r</tspan><tspan x="519.13" y="0">eless N</tspan><tspan class="cls-4" x="753.85" y="0">e</tspan><tspan class="cls-5" x="794.68" y="0">t</tspan><tspan class="cls-6" x="819.28" y="0">w</tspan><tspan x="875.23" y="0">orking</tspan></text><text class="cls-7" transform="translate(-5.88 248.1)">DSWN</text><path class="cls-8" d="M4.32,58.41l24.07,8L138,102.88a93.53,93.53,0,0,1,31.68,16.59,52.88,52.88,0,0,1,12.71,16.11,45.8,45.8,0,0,1,4.69,21.14A46.07,46.07,0,0,1,182.38,178a50.5,50.5,0,0,1-12.85,16A92,92,0,0,1,138,210.57L28.39,247.15l-24.07,8ZM41,109.13v95.32l85.53-28.55a56.78,56.78,0,0,0,19-9.52,11.63,11.63,0,0,0,4.76-9.66,11.38,11.38,0,0,0-4.62-9.52q-7.49-6-19.18-9.65Z"/><path class="cls-8" d="M335.43,101.92H262.27q-7.06,0-11.42,3.81t-5.37,7.89a29.38,29.38,0,0,0-1,6.93,22,22,0,0,0,.68,5.44,17.74,17.74,0,0,0,5.71,9.25q4.35,3.81,11.42,3.81h73.16q15.36,0,26.45,6a50,50,0,0,1,17.74,15.64q6.66,9.65,8.3,18.35a82.4,82.4,0,0,1,1.63,14.55,63.49,63.49,0,0,1-1.09,11.56,54.83,54.83,0,0,1-8.84,21.35,50,50,0,0,1-17.74,15.64q-11.08,6-26.45,6H262.27a53,53,0,0,1-21.21-4.28,55.85,55.85,0,0,1-29.31-29.31,53.34,53.34,0,0,1-4.28-21.34h36.71a18.13,18.13,0,0,0,18.09,18.22h73.16q7.06,0,11.42-3.61a15.43,15.43,0,0,0,5.44-7.61,26.51,26.51,0,0,0,1.09-6.6,17.62,17.62,0,0,0-.82-5.3,16.8,16.8,0,0,0-5.71-8.91q-4.35-3.6-11.42-3.6H262.27q-15.37,0-26.45-6a49.38,49.38,0,0,1-17.67-15.84q-6.6-9.8-8.3-18.63a80.8,80.8,0,0,1-1.7-14.69,64.13,64.13,0,0,1,1.09-11.83,58.21,58.21,0,0,1,8.91-21.48A49.29,49.29,0,0,1,235.82,71.4q11.09-6.06,26.45-6.05h73.16a52.9,52.9,0,0,1,21.21,4.28,57.08,57.08,0,0,1,17.54,11.76,55.1,55.1,0,0,1,11.76,17.47,53.41,53.41,0,0,1,4.29,21.28H353.51a18.34,18.34,0,0,0-18.08-18.22Z"/><path class="cls-8" d="M410.62,65.35h36.72V193.17a17.87,17.87,0,0,0,5.3,12.91,17.42,17.42,0,0,0,12.78,5.31,18.13,18.13,0,0,0,18.23-18.22h36.71a18.11,18.11,0,0,0,18.22,18.22,17.39,17.39,0,0,0,12.78-5.31,17.84,17.84,0,0,0,5.31-12.91V65.35h36.71V193.17a53.34,53.34,0,0,1-4.28,21.34,55.75,55.75,0,0,1-29.31,29.31,54.8,54.8,0,0,1-41.13.54A56.62,56.62,0,0,1,502,234.1a56.49,56.49,0,0,1-16.66,10.26,54.8,54.8,0,0,1-41.13-.54,55.94,55.94,0,0,1-17.54-11.9,55.17,55.17,0,0,1-11.76-17.41,53.18,53.18,0,0,1-4.29-21.34Z"/><path class="cls-8" d="M759.82,65.35h36.71V193.17a53.17,53.17,0,0,1-4.28,21.34,55.34,55.34,0,0,1-11.76,17.41A56.05,56.05,0,0,1,763,243.82a55,55,0,0,1-42.56,0,57.07,57.07,0,0,1-29.31-29.31,53.34,53.34,0,0,1-4.28-21.34v-73a17.45,17.45,0,0,0-5.3-12.78,17.69,17.69,0,0,0-12.92-5.44,18.35,18.35,0,0,0-18.09,18.22v128H613.78v-128a53.58,53.58,0,0,1,4.28-21.28,55.43,55.43,0,0,1,11.76-17.47,57.2,57.2,0,0,1,17.54-11.76,55.07,55.07,0,0,1,42.57,0,57.2,57.2,0,0,1,17.54,11.76,55.43,55.43,0,0,1,11.76,17.47,53.41,53.41,0,0,1,4.28,21.28v73a18.13,18.13,0,0,0,18.22,18.22,17.43,17.43,0,0,0,12.79-5.31,17.87,17.87,0,0,0,5.3-12.91Z"/><text class="cls-9" transform="translate(4.32 315.14) scale(0.74 1)">Deep Space Wi<tspan class="cls-4" x="498.86" y="0">r</tspan><tspan x="519.13" y="0">eless N</tspan><tspan class="cls-4" x="753.85" y="0">e</tspan><tspan class="cls-5" x="794.68" y="0">t</tspan><tspan class="cls-6" x="819.28" y="0">w</tspan><tspan x="875.23" y="0">orking</tspan></text><text class="cls-10" transform="translate(4.32 315.14) scale(0.74 1)">Deep Space Wi<tspan class="cls-4" x="498.86" y="0">r</tspan><tspan x="519.13" y="0">eless N</tspan><tspan class="cls-4" x="753.85" y="0">e</tspan><tspan class="cls-5" x="794.68" y="0">t</tspan><tspan class="cls-6" x="819.28" y="0">w</tspan><tspan x="875.23" y="0">orking</tspan></text></svg>